<svg id="Capa_1" enable-background="new 0 0 510 510" height="512" viewBox="0 0 510 510" width="512" xmlns="http://www.w3.org/2000/svg" xmlns:xlink="http://www.w3.org/1999/xlink"><linearGradient id="lg1"><stop offset="0" stop-color="#ffd945"/><stop offset=".3043" stop-color="#ffcd3e"/><stop offset=".8558" stop-color="#ffad2b"/><stop offset="1" stop-color="#ffa325"/></linearGradient><linearGradient id="SVGID_1_" gradientUnits="userSpaceOnUse" x1="229.936" x2="280.064" xlink:href="#lg1" y1="106.795" y2="106.795"/><linearGradient id="SVGID_2_" gradientUnits="userSpaceOnUse" x1="229.936" x2="280.064" xlink:href="#lg1" y1="403.205" y2="403.205"/><linearGradient id="SVGID_3_" gradientTransform="matrix(0 1 -1 0 510 0)" gradientUnits="userSpaceOnUse" x1="229.936" x2="280.064" xlink:href="#lg1" y1="106.795" y2="106.795"/><linearGradient id="SVGID_4_" gradientTransform="matrix(0 1 -1 0 510 0)" gradientUnits="userSpaceOnUse" x1="229.936" x2="280.064" xlink:href="#lg1" y1="403.205" y2="403.205"/><linearGradient id="SVGID_5_" gradientTransform="matrix(.707 .707 -.707 .707 254.991 -105.723)" gradientUnits="userSpaceOnUse" x1="230.014" x2="280.143" xlink:href="#lg1" y1="106.859" y2="106.859"/><linearGradient id="SVGID_6_" gradientTransform="matrix(.707 .707 -.707 .707 254.991 -105.723)" gradientUnits="userSpaceOnUse" x1="230.014" x2="280.143" xlink:href="#lg1" y1="403.272" y2="403.272"/><linearGradient id="SVGID_7_" gradientTransform="matrix(-.707 .707 -.707 -.707 615.723 254.991)" gradientUnits="userSpaceOnUse" x1="230.014" x2="280.143" xlink:href="#lg1" y1="106.859" y2="106.859"/><linearGradient id="SVGID_8_" gradientTransform="matrix(-.707 .707 -.707 -.707 615.723 254.991)" gradientUnits="userSpaceOnUse" x1="230.014" x2="280.143" xlink:href="#lg1" y1="403.272" y2="403.272"/><linearGradient id="SVGID_9_" gradientTransform="matrix(.923 .385 -.385 .923 117.655 -78.162)" gradientUnits="userSpaceOnUse" x1="229.976" x2="280.103" xlink:href="#lg1" y1="106.37" y2="106.37"/><linearGradient id="SVGID_10_" gradientTransform="matrix(.923 .385 -.385 .923 117.655 -78.162)" gradientUnits="userSpaceOnUse" x1="229.986" x2="280.113" xlink:href="#lg1" y1="402.773" y2="402.773"/><linearGradient id="SVGID_11_" gradientTransform="matrix(-.385 .923 -.923 -.385 588.162 117.654)" gradientUnits="userSpaceOnUse" x1="229.977" x2="280.104" xlink:href="#lg1" y1="106.37" y2="106.37"/><linearGradient id="SVGID_12_" gradientTransform="matrix(-.385 .923 -.923 -.385 588.162 117.654)" gradientUnits="userSpaceOnUse" x1="229.987" x2="280.114" xlink:href="#lg1" y1="402.773" y2="402.773"/><linearGradient id="SVGID_13_" gradientTransform="matrix(.38 .925 -.925 .38 393.577 -77.546)" gradientUnits="userSpaceOnUse" x1="229.787" x2="279.914" xlink:href="#lg1" y1="106.42" y2="106.42"/><linearGradient id="SVGID_14_" gradientTransform="matrix(.38 .925 -.925 .38 393.577 -77.546)" gradientUnits="userSpaceOnUse" x1="229.793" x2="279.919" xlink:href="#lg1" y1="402.82" y2="402.82"/><linearGradient id="SVGID_15_" gradientTransform="matrix(-.925 .38 -.38 -.925 587.546 393.576)" gradientUnits="userSpaceOnUse" x1="229.788" x2="279.915" xlink:href="#lg1" y1="106.419" y2="106.419"/><linearGradient id="SVGID_16_" gradientTransform="matrix(-.925 .38 -.38 -.925 587.546 393.576)" gradientUnits="userSpaceOnUse" x1="229.793" x2="279.92" xlink:href="#lg1" y1="402.819" y2="402.819"/><linearGradient id="SVGID_17_" gradientUnits="userSpaceOnUse" x1="402.66" x2="268.89" y1="402.66" y2="268.89"><stop offset="0" stop-color="#e87264" stop-opacity="0"/><stop offset=".3481" stop-color="#eb7260" stop-opacity=".348"/><stop offset=".7184" stop-color="#f47153" stop-opacity=".718"/><stop offset="1" stop-color="#ff7044"/></linearGradient><linearGradient id="SVGID_18_" gradientUnits="userSpaceOnUse" x1="201.993" x2="306.547" y1="201.993" y2="306.547"><stop offset="0" stop-color="#dc934b"/><stop offset="1" stop-color="#c7732e"/></linearGradient><linearGradient id="lg2"><stop offset=".0108" stop-color="#c7732e" stop-opacity="0"/><stop offset="1" stop-color="#aa5a1f"/></linearGradient><linearGradient id="SVGID_19_" gradientUnits="userSpaceOnUse" x1="158.908" x2="187.604" xlink:href="#lg2" y1="252.855" y2="258.303"/><linearGradient id="SVGID_20_" gradientUnits="userSpaceOnUse" x1="175.671" x2="211.633" xlink:href="#lg2" y1="250.163" y2="257.791"/><linearGradient id="SVGID_21_" gradientUnits="userSpaceOnUse" x1="204.656" x2="234.079" xlink:href="#lg2" y1="251.457" y2="256.179"/><linearGradient id="SVGID_22_" gradientUnits="userSpaceOnUse" x1="230.627" x2="260.777" xlink:href="#lg2" y1="252.065" y2="256.424"/><linearGradient id="SVGID_23_" gradientUnits="userSpaceOnUse" x1="259.434" x2="291.036" xlink:href="#lg2" y1="254.93" y2="260.378"/><linearGradient id="SVGID_24_" gradientUnits="userSpaceOnUse" x1="283.699" x2="311.306" xlink:href="#lg2" y1="255.057" y2="258.689"/><linearGradient id="SVGID_25_" gradientUnits="userSpaceOnUse" x1="306.411" x2="335.834" xlink:href="#lg2" y1="254.242" y2="258.601"/><linearGradient id="SVGID_26_" gradientUnits="userSpaceOnUse" x1="333.281" x2="357.255" xlink:href="#lg2" y1="253.816" y2="258.175"/><linearGradient id="SVGID_27_" gradientTransform="matrix(0 1 1 0 0 0)" gradientUnits="userSpaceOnUse" x1="158.908" x2="187.604" xlink:href="#lg2" y1="252.855" y2="258.303"/><linearGradient id="SVGID_28_" gradientTransform="matrix(0 1 1 0 0 0)" gradientUnits="userSpaceOnUse" x1="175.671" x2="211.633" xlink:href="#lg2" y1="250.163" y2="257.791"/><linearGradient id="SVGID_29_" gradientTransform="matrix(0 1 1 0 0 0)" gradientUnits="userSpaceOnUse" x1="204.656" x2="234.079" xlink:href="#lg2" y1="251.457" y2="256.179"/><linearGradient id="SVGID_30_" gradientTransform="matrix(0 1 1 0 0 0)" gradientUnits="userSpaceOnUse" x1="230.627" x2="260.777" xlink:href="#lg2" y1="252.065" y2="256.424"/><linearGradient id="SVGID_31_" gradientTransform="matrix(0 1 1 0 0 0)" gradientUnits="userSpaceOnUse" x1="259.434" x2="291.036" xlink:href="#lg2" y1="254.93" y2="260.378"/><linearGradient id="SVGID_32_" gradientTransform="matrix(0 1 1 0 0 0)" gradientUnits="userSpaceOnUse" x1="283.699" x2="311.306" xlink:href="#lg2" y1="255.057" y2="258.689"/><linearGradient id="SVGID_33_" gradientTransform="matrix(0 1 1 0 0 0)" gradientUnits="userSpaceOnUse" x1="306.411" x2="335.834" xlink:href="#lg2" y1="254.242" y2="258.601"/><linearGradient id="SVGID_34_" gradientTransform="matrix(0 1 1 0 0 0)" gradientUnits="userSpaceOnUse" x1="333.281" x2="357.255" xlink:href="#lg2" y1="253.816" y2="258.175"/><g><g><g><g><ellipse cx="255" cy="106.795" fill="url(#SVGID_1_)" rx="31.603" ry="106.795"/><ellipse cx="255" cy="403.205" fill="url(#SVGID_2_)" rx="31.603" ry="106.795"/></g><g><ellipse cx="403.205" cy="255" fill="url(#SVGID_3_)" rx="106.795" ry="31.603"/><ellipse cx="106.795" cy="255" fill="url(#SVGID_4_)" rx="106.795" ry="31.603"/></g></g><g><g><path d="m382.143 172.55c-41.706 41.706-85.52 65.511-97.862 53.169s11.463-56.156 53.169-97.862 85.52-65.511 97.862-53.169c12.342 12.341-11.463 56.156-53.169 97.862z" fill="url(#SVGID_5_)"/><path d="m172.549 382.143c-41.706 41.706-85.52 65.511-97.862 53.169s11.463-56.156 53.169-97.862 85.52-65.511 97.862-53.169-11.463 56.156-53.169 97.862z" fill="url(#SVGID_6_)"/></g><g><path d="m337.451 382.143c-41.706-41.706-65.511-85.52-53.169-97.862s56.156 11.463 97.862 53.169 65.511 85.52 53.169 97.862-56.157-11.463-97.862-53.169z" fill="url(#SVGID_7_)"/><path d="m127.857 172.55c-41.706-41.706-65.511-85.52-53.169-97.862 12.341-12.342 56.156 11.463 97.862 53.169s65.511 85.52 53.169 97.862c-12.342 12.341-56.156-11.463-97.862-53.169z" fill="url(#SVGID_8_)"/></g></g><g><g><path d="m341.234 130.392c-22.711 54.433-54.18 93.112-70.288 86.391s-10.754-56.296 11.957-110.729 54.18-93.112 70.288-86.391c16.107 6.72 10.754 56.295-11.957 110.729z" fill="url(#SVGID_9_)"/><path d="m227.098 403.946c-22.711 54.433-54.18 93.112-70.288 86.391s-10.755-56.296 11.957-110.729c22.711-54.433 54.18-93.112 70.288-86.391s10.754 56.296-11.957 110.729z" fill="url(#SVGID_10_)"/></g><g><path d="m379.608 341.234c-54.433-22.711-93.112-54.18-86.391-70.288s56.296-10.755 110.729 11.957c54.433 22.711 93.112 54.18 86.391 70.288-6.72 16.107-56.295 10.754-110.729-11.957z" fill="url(#SVGID_11_)"/><path d="m106.054 227.098c-54.433-22.711-93.112-54.18-86.391-70.288s56.296-10.755 110.729 11.957c54.433 22.711 93.112 54.18 86.391 70.288s-56.296 10.754-110.729-11.957z" fill="url(#SVGID_12_)"/></g></g><g><g><path d="m404.088 227.865c-54.549 22.431-104.151 27.529-110.789 11.387s32.202-47.412 86.752-69.843c54.549-22.431 104.151-27.529 110.789-11.387 6.637 16.143-32.203 47.412-86.752 69.843z" fill="url(#SVGID_13_)"/><path d="m129.949 340.591c-54.549 22.431-104.151 27.529-110.789 11.387s32.202-47.412 86.752-69.843c54.549-22.431 104.151-27.529 110.789-11.387 6.638 16.143-32.202 47.412-86.752 69.843z" fill="url(#SVGID_14_)"/></g><g><path d="m282.135 404.088c-22.431-54.549-27.529-104.151-11.387-110.789s47.412 32.202 69.843 86.752c22.431 54.549 27.529 104.151 11.387 110.789-16.143 6.637-47.412-32.203-69.843-86.752z" fill="url(#SVGID_15_)"/><path d="m169.409 129.949c-22.431-54.549-27.529-104.151-11.387-110.789s47.412 32.203 69.843 86.752 27.529 104.151 11.386 110.789c-16.142 6.638-47.411-32.202-69.842-86.752z" fill="url(#SVGID_16_)"/></g></g></g><path d="m490.337 353.19c6.374-15.276-28.087-44.366-78.09-66.701 10.657-.265 20.866-.994 30.402-2.116l-106.306-106.306c-20.409-21.571-49.303-35.032-81.343-35.032-61.837 0-111.966 50.129-111.966 111.966 0 32.04 13.461 60.934 35.032 81.343l106.308 106.308c1.056-8.975 1.765-18.545 2.065-28.525 21.977 49.189 50.405 82.936 65.538 76.714 15.31-6.296 11.511-51.241-8.059-102.399 39.676 37.756 79.689 58.576 91.394 46.871 11.57-11.57-8.628-50.801-45.562-90.024 50.322 19.241 94.287 23.002 100.587 7.901z" fill="url(#SVGID_17_)"/><circle cx="255" cy="255" fill="url(#SVGID_18_)" r="111.966"/><g><g><g><path d="m170.207 181.878v146.244c-16.924-19.616-27.167-45.181-27.167-73.122s10.243-53.506 27.167-73.122z" fill="url(#SVGID_19_)"/><path d="m198.475 158.34v193.32c-10.68-6.255-20.226-14.232-28.268-23.538v-146.244c8.042-9.306 17.588-17.283 28.268-23.538z" fill="url(#SVGID_20_)"/><path d="m226.732 146.636v216.728c-10.037-2.615-19.528-6.582-28.257-11.704v-193.32c8.729-5.122 18.22-9.089 28.257-11.704z" fill="url(#SVGID_21_)"/><path d="m255 143.04v223.92c-9.764 0-19.234-1.253-28.268-3.596v-216.728c9.034-2.343 18.504-3.596 28.268-3.596z" fill="url(#SVGID_22_)"/><path d="m283.268 146.636v216.728c-9.034 2.343-18.504 3.596-28.268 3.596v-223.92c9.764 0 19.234 1.253 28.268 3.596z" fill="url(#SVGID_23_)"/><path d="m311.525 158.34v193.32c-8.729 5.122-18.221 9.088-28.257 11.704v-216.728c10.036 2.615 19.528 6.582 28.257 11.704z" fill="url(#SVGID_24_)"/><path d="m339.793 181.878v146.244c-8.042 9.306-17.589 17.283-28.268 23.538v-193.32c10.679 6.255 20.226 14.232 28.268 23.538z" fill="url(#SVGID_25_)"/><path d="m366.96 255c0 27.941-10.243 53.506-27.167 73.122v-146.244c16.924 19.616 27.167 45.181 27.167 73.122z" fill="url(#SVGID_26_)"/></g></g><g><g><path d="m181.878 170.207h146.244c-19.616-16.924-45.181-27.167-73.122-27.167s-53.506 10.243-73.122 27.167z" fill="url(#SVGID_27_)"/><path d="m158.34 198.475h193.32c-6.255-10.679-14.232-20.226-23.539-28.268h-146.243c-9.306 8.042-17.283 17.589-23.538 28.268z" fill="url(#SVGID_28_)"/><path d="m146.636 226.732h216.728c-2.615-10.036-6.582-19.528-11.704-28.257h-193.32c-5.122 8.729-9.089 18.221-11.704 28.257z" fill="url(#SVGID_29_)"/><path d="m143.04 255h223.92c0-9.764-1.253-19.234-3.596-28.268h-216.728c-2.343 9.034-3.596 18.504-3.596 28.268z" fill="url(#SVGID_30_)"/><path d="m146.636 283.268h216.728c2.343-9.034 3.596-18.504 3.596-28.268h-223.92c0 9.764 1.253 19.234 3.596 28.268z" fill="url(#SVGID_31_)"/><path d="m158.34 311.525h193.32c5.122-8.729 9.088-18.22 11.704-28.257h-216.728c2.615 10.037 6.582 19.528 11.704 28.257z" fill="url(#SVGID_32_)"/><path d="m181.878 339.793h146.244c9.306-8.042 17.283-17.588 23.539-28.268h-193.321c6.255 10.68 14.232 20.226 23.538 28.268z" fill="url(#SVGID_33_)"/><path d="m255 366.96c27.941 0 53.506-10.243 73.122-27.167h-146.244c19.616 16.924 45.181 27.167 73.122 27.167z" fill="url(#SVGID_34_)"/></g></g></g></g></svg>